<?xml version="1.0" encoding="UTF-8"?>
<svg id="Vrstva_1" xmlns="http://www.w3.org/2000/svg" version="1.1" xmlns:xlink="http://www.w3.org/1999/xlink" viewBox="0 0 368.5 62.36">
  <!-- Generator: Adobe Illustrator 29.4.0, SVG Export Plug-In . SVG Version: 2.1.0 Build 152)  -->
  <defs>
    <style>
      .st0 {
        fill: #fff;
      }

      .st1 {
        fill: none;
      }

      .st2 {
        clip-path: url(#clippath);
      }
    </style>
    <clipPath id="clippath">
      <rect class="st1" x="0" y=".48" width="368.5" height="61.41"/>
    </clipPath>
  </defs>
  <g class="st2">
    <path class="st0" d="M25.88,7.69c.06-4.05-3.31-7.29-7.76-7.21-4.46-.08-7.82,3.16-7.76,7.21-.06,4.05,3.3,7.25,7.76,7.17,4.45.08,7.82-3.12,7.76-7.17M24.61,26.64l13.41-4.61-3.54-9.2L0,24.69l3.55,9.2,9.87-3.39v30.54h11.2V26.64ZM58.46,7.69c.06-4.05-3.31-7.29-7.76-7.21-4.46-.08-7.82,3.16-7.76,7.21-.06,4.05,3.31,7.25,7.76,7.17,4.45.08,7.82-3.12,7.76-7.17M68.82,61.03l-17.64-21.34,16.99-21.22h-13.26l-12.81,16.36h-3.8v-10.51l-11.2,3.94v32.78h0s11.2,0,11.2,0h0v-16.48h3.67l13.2,16.48h13.65ZM106.86,39.69l16.99-21.21h-13.26l-12.81,16.35h-3.8v-16.35h-11.2v42.55h11.2v-16.47h3.67l13.19,16.47h13.64l-17.63-21.34ZM159.11,39.82c0,7.11-4.89,12.1-12.16,12.1s-12.16-4.99-12.16-12.1,4.89-12.22,12.16-12.22,12.16,5.11,12.16,12.22M170.83,39.82c.19-12.46-10.17-22.43-23.87-22.19-13.71-.24-24.07,9.73-23.87,22.19-.19,12.46,10.17,22.31,23.87,22.07,13.71.24,24.07-9.6,23.87-22.07M199.14,14.35l9.39-10.4h-10.75l-3.99,4.68-3.99-4.68h-10.75l9.4,10.4h10.68ZM187.17,30.33c0-1.95,2.06-3.28,6.24-3.28s7.79,1.4,10.55,4.25l7.59-5.9c-3.28-4.86-9.85-7.78-18.08-7.78-11,0-17.63,5.29-17.63,12.95,0,6.26,4.31,10.64,12.81,12.58l7.27,1.64c4.12.91,5.47,2.07,5.47,3.83,0,2.37-2.19,3.77-6.5,3.77-5.21,0-9.78-2.07-12.61-5.65l-7.59,5.84c3.35,5.84,10.75,9.3,19.82,9.3,11.39,0,18.21-5.59,18.21-13.8,0-6.32-3.99-10.58-12.23-12.46l-7.53-1.7c-4.38-.97-5.79-2.07-5.79-3.59M242.83,39.69l16.99-21.21h-13.26l-12.81,16.35h-3.8v-16.35h-11.2v42.55h11.2v-16.47h3.67l13.19,16.47h13.64l-17.63-21.34ZM295.08,39.82c0,7.11-4.89,12.1-12.16,12.1s-12.16-4.99-12.16-12.1,4.89-12.22,12.16-12.22,12.16,5.11,12.16,12.22M306.79,39.82c.19-12.46-10.17-22.43-23.87-22.19-13.71-.24-24.07,9.73-23.87,22.19-.19,12.46,10.17,22.31,23.87,22.07,13.71.24,24.07-9.6,23.87-22.07M336.39,61.03l16.02-42.55h-12.03l-10.49,30.09-10.49-30.09h-12.03l16.02,42.55h13ZM368.5,18.48h-11.2v42.55h11.2V18.48Z"/>
  </g>
</svg>